<?xml version="1.0" encoding="utf-8"?>
<!-- Generator: Adobe Illustrator 18.1.1, SVG Export Plug-In . SVG Version: 6.00 Build 0)  -->
<!DOCTYPE svg PUBLIC "-//W3C//DTD SVG 1.1//EN" "http://www.w3.org/Graphics/SVG/1.1/DTD/svg11.dtd">
<svg version="1.1" id="Layer_1" xmlns="http://www.w3.org/2000/svg" xmlns:xlink="http://www.w3.org/1999/xlink" x="0px" y="0px"
	 width="58.4px" height="20px" viewBox="-462 271 58.4 20" enable-background="new -462 271 58.4 20" xml:space="preserve">
<path fill="#070707" d="M-446.7,273.6c-8.6,0-12.9,7.3-12.9,7.3s5.6,7.6,12.9,7.6c8.2,0,12.9-7.4,12.9-7.4S-437.8,273.6-446.7,273.6
	z M-446.7,286c-2.7,0-5-2.3-5-5s2.3-5,5-5s5,2.3,5,5S-444,286-446.7,286z"/>
<path fill="#070707" d="M-418.7,273.6c-8.6,0-12.9,7.3-12.9,7.3s5.6,7.6,12.9,7.6c8.2,0,12.9-7.4,12.9-7.4S-409.8,273.6-418.7,273.6
	z M-413.7,281c0,2.7-2.3,5-5,5s-5-2.3-5-5"/>
<circle fill="#010101" cx="-446.7" cy="281" r="1.9"/>
<circle fill="#010101" cx="-418.7" cy="281" r="1.9"/>
</svg>
