<svg xmlns="http://www.w3.org/2000/svg" width="58.4" height="20" viewBox="-462 271 58.4 20"><path fill="#070707" d="M-446.7 273.6c-8.6 0-12.9 7.3-12.9 7.3s5.6 7.6 12.9 7.6c8.2 0 12.9-7.4 12.9-7.4s-4-7.5-12.9-7.5zm0 12.4c-2.7 0-5-2.3-5-5s2.3-5 5-5 5 2.3 5 5-2.3 5-5 5zM-418.7 273.6c-8.6 0-12.9 7.3-12.9 7.3s5.6 7.6 12.9 7.6c8.2 0 12.9-7.4 12.9-7.4s-4-7.5-12.9-7.5zm5 7.4c0 2.7-2.3 5-5 5s-5-2.3-5-5"/><circle fill="#010101" cx="-446.7" cy="281" r="1.9"/><circle fill="#010101" cx="-418.7" cy="281" r="1.9"/></svg>